<svg width="48" height="48" fill="#1a1919" viewBox="0 0 24 24" xmlns="http://www.w3.org/2000/svg">
      <path d="M2.88 3.72a.6.6 0 0 1 .6-.6h1.8a.6.6 0 0 1 .582.455l.486 1.945H20.28a.6.6 0 0 1 .59.71l-1.8 9.6a.6.6 0 0 1-.59.49H7.68a.6.6 0 0 1-.59-.49L5.293 6.25l-.48-1.929H3.48a.6.6 0 0 1-.6-.6Zm3.722 3 1.576 8.4h9.804l1.576-8.4H6.602Zm2.278 9.6a2.4 2.4 0 1 0 0 4.8 2.4 2.4 0 0 0 0-4.8Zm8.4 0a2.4 2.4 0 1 0 0 4.801 2.4 2.4 0 0 0 0-4.8Zm-8.4 1.2a1.2 1.2 0 1 1 0 2.4 1.2 1.2 0 0 1 0-2.4Zm8.4 0a1.2 1.2 0 1 1 0 2.4 1.2 1.2 0 0 1 0-2.4Z"></path>
</svg>