<svg width="48" height="48" fill="#1a1919" viewBox="0 0 24 24" xmlns="http://www.w3.org/2000/svg">
      <path d="M5.614 15.874a1.2 1.2 0 0 1 .344.96 13.165 13.165 0 0 1-.477 2.4c1.674-.387 2.696-.836 3.16-1.07a1.2 1.2 0 0 1 .853-.09 9.67 9.67 0 0 0 2.506.327c4.796 0 8.4-3.369 8.4-7.2S16.796 4 12 4c-4.795 0-8.4 3.37-8.4 7.2 0 1.761.74 3.396 2.014 4.673Zm-.592 4.686a26.1 26.1 0 0 1-.855.154c-.24.039-.423-.21-.328-.434.107-.251.204-.506.293-.764l.004-.012c.297-.864.54-1.858.628-2.783C3.292 15.245 2.4 13.313 2.4 11.2c0-4.64 4.3-8.4 9.6-8.4 5.302 0 9.6 3.76 9.6 8.4 0 4.639-4.298 8.4-9.6 8.4-.95.001-1.897-.122-2.816-.367-.624.315-1.967.89-4.162 1.326Z"></path>
</svg>